<svg xmlns="http://www.w3.org/2000/svg" version="1.1" y="0px" x="0px" viewBox="0 0 100 100"><path fill="#c83737" d="m52.84 0.07829c27.57 1.47 48.64 23.25 47.08 48.64-0.5773 9.358-4.157 17.9-9.818 24.88 0.1673 8.426 1.409 20.35 6.655 26.4 0 0-16.96-3.38-28.11-11.19-6.611 2.444-13.89 3.629-21.48 3.224-27.57-1.469-48.65-23.24-47.08-48.64 1.566-25.39 25.19-44.79 52.75-43.32z"/><path fill="#fff" d="m37.13 71.78c7.066-1.783 14.21-3.359 21.21-5.312 7.235-2.123 14.05-6.415 15.52-11.4 1.206-4.189 0.1986-8.51-3.523-11.43-2.764-2.085-7.581-2.629-12.25-2.102 2.248-1.634 5.838-3.621 6.824-6.005 2.409-4.442 0.9905-9.213-3.461-11.98-4.853-2.767-12.89-1.847-19.6-0.2731-5.842 1.412-11.68 2.856-17.51 4.281l12.78 44.22zm7.008-29.69c-1.095-3.789-2.19-7.578-3.286-11.37 3.131-0.864 7.161-1.694 9.074 0.0855 1.97 1.965 2.736 4.644 1.734 7.27-0.9376 2.256-4.458 3.358-7.523 4.012zm5.574 19.28c-1.256-4.344-2.512-8.689-3.767-13.03 3.66-0.9795 8.155-1.994 10.88-0.3469 2.834 1.895 3.573 4.984 2.715 7.891-0.869 2.719-5.135 4.541-8.987 5.284-0.2798 0.06853-0.5596 0.1371-0.8394 0.2056z"/></svg>
