<svg fill="#FFFFFF" height="48" viewBox="0 0 48 48" width="48" xmlns="http://www.w3.org/2000/svg"><path stroke-width=".1" d="m0 0v21.91h21.91v-21.91zm18.78 18.78h-15.65v-15.65h15.65z"/><path stroke-width=".1" d="m6.261 6.261h9.391v9.391h-9.389z"/><path stroke-width=".1" d="m26.09 0v21.91h21.91v-21.91zm18.78 18.78h-15.65v-15.65h15.65z"/><path stroke-width=".1" d="m32.35 6.261h9.391v9.391h-9.391z"/><path stroke-width=".1" d="m0 26.09v21.91h21.91v-21.91zm18.78 18.78h-15.65v-15.65h15.65z"/><path stroke-width=".05" d="m26.37 26.08v0.0265h-0.02655v9.375h2.812v-6.589h6.589v-2.812zm12.19 0.0134v2.812h6.589v6.589h2.812v-9.375h-0.02637v-0.0264zm6.606 12.46v6.589h-6.589v2.812h9.375v-0.0265h0.02655v-9.375zm-18.81 0.0134v9.375h0.02655v0.0265h9.375v-2.812h-6.589v-6.589z"/><path stroke-width=".1" d="m6.491 32.32h9.391v9.391h-9.389z"/></svg>